<svg t="1705558032621" class="icon" viewBox="0 0 1024 1024" version="1.1" xmlns="http://www.w3.org/2000/svg" p-id="6886" width="16" height="16"><path d="M587.648 948.522667l-70.997333-61.930667a2478.122667 2478.122667 0 0 1-36.48-31.829333l-1.962667-1.706667C244.650667 644.693333 192.170667 512.853333 192.170667 436.544 192.170667 254.634667 340.437333 106.666667 522.666667 106.666667c182.229333 0 330.496 147.968 330.496 329.856 0 69.44-43.434667 184.810667-227.136 361.962666l64.554666 56.32C855.978667 693.973333 938.666667 554.56 938.666667 436.522667 938.666667 207.232 752.426667 21.333333 522.666667 21.333333S106.666667 207.232 106.666667 436.522667C106.666667 589.376 245.333333 778.090667 522.666667 1002.666667a2937.898667 2937.898667 0 0 0 64.981333-54.144z" fill="#000000" p-id="6887"></path><path d="M522.666667 533.333333a96 96 0 1 0 0-192 96 96 0 0 0 0 192z m0 85.333334a181.333333 181.333333 0 1 1 0-362.666667 181.333333 181.333333 0 0 1 0 362.666667z" fill="#000000" p-id="6888"></path></svg>